<svg xmlns="http://www.w3.org/2000/svg" width="150" height="50" viewBox="0,0,150,50">
    <path fill="#efef8f"
          d="M34.60 23.30L34.74 23.44L34.61 23.32Q31.41 23.32 29.59 22.25L29.63 22.30L29.59 22.25Q32.15 20.93 37.03 16.71L36.99 16.67L37.14 16.82Q37.86 16.63 39.16 16.02L39.13 15.99L38.99 15.85Q37.83 21.97 37.72 28.33L37.61 28.22L37.57 28.18Q37.42 34.50 38.48 40.59L38.62 40.72L38.59 40.69Q36.83 39.89 34.70 39.77L34.68 39.75L34.67 39.75Q34.65 35.69 34.65 31.62L34.66 31.63L34.69 31.65Q34.65 27.51 34.69 23.40ZM34.39 25.72L34.25 40.16L34.32 40.23Q35.58 40.27 36.53 40.46L36.39 40.33L36.55 40.48Q36.58 41.13 36.77 42.50L36.71 42.43L36.70 42.42Q39.60 43.00 42.04 45.25L42.06 45.27L42.13 45.34Q39.59 38.16 39.56 30.70L39.58 30.72L39.46 30.61Q39.37 23.13 41.20 15.90L41.31 16.01L41.21 15.90Q40.81 16.45 39.21 17.56L39.24 17.59L39.06 17.41Q39.25 16.65 39.56 15.13L39.61 15.18L39.55 15.12Q38.30 15.96 36.85 16.34L36.96 16.45L36.80 16.29Q33.17 20.01 28.87 22.29L28.85 22.27L28.76 22.18Q30.17 23.29 32.53 23.63L32.60 23.71L32.55 23.65Q31.92 24.21 30.63 25.27L30.62 25.26L30.63 25.27Q32.05 25.59 34.26 25.59L34.27 25.60Z"/>
    <path fill="#e38be3"
          d="M108.75 23.45L108.79 23.49L108.67 23.37Q105.55 23.45 103.72 22.38L103.61 22.27L103.70 22.36Q106.21 20.99 111.09 16.77L110.97 16.65L111.11 16.80Q111.81 16.58 113.11 15.97L113.00 15.87L113.11 15.98Q111.74 21.87 111.62 28.23L111.72 28.32L111.63 28.24Q111.46 34.54 112.53 40.63L112.49 40.60L112.53 40.64Q111.00 40.06 108.87 39.95L108.82 39.90L108.78 39.85Q108.61 35.64 108.61 31.57L108.73 31.69L108.65 31.61Q108.70 27.55 108.73 23.44ZM108.36 25.69L108.24 40.15L108.25 40.16Q109.53 40.22 110.48 40.41L110.50 40.43L110.54 40.47Q110.65 41.19 110.84 42.56L110.76 42.48L110.73 42.45Q113.58 42.98 116.01 45.22L116.05 45.26L116.12 45.33Q113.59 38.15 113.55 30.69L113.56 30.70L113.54 30.69Q113.36 23.11 115.18 15.88L115.36 16.06L115.19 15.89Q114.66 16.31 113.06 17.41L113.23 17.58L113.08 17.43Q113.40 16.80 113.71 15.28L113.63 15.20L113.71 15.28Q112.37 16.04 110.93 16.42L110.83 16.32L110.94 16.43Q107.08 19.92 102.77 22.20L102.77 22.20L102.81 22.23Q104.19 23.31 106.55 23.65L106.63 23.73L106.55 23.65Q105.91 24.19 104.61 25.26L104.54 25.18L104.66 25.31Q106.19 25.72 108.39 25.72L108.29 25.62Z"/>
</svg>