<svg xmlns="http://www.w3.org/2000/svg" width="150" height="50" viewBox="0,0,150,50">
    <path fill="#85efba"
          d="M42.03 37.93L42.07 37.96L42.00 37.90Q42.26 38.85 42.79 40.86L42.93 41.00L42.83 40.90Q38.70 39.66 34.09 39.93L34.10 39.94L33.92 39.75Q29.47 40.14 25.47 42.12L25.40 42.05L25.54 42.19Q25.69 41.42 25.73 41.50L25.74 41.51L25.67 41.44Q29.41 37.50 33.34 33.08L33.38 33.13L33.39 33.14Q37.84 28.18 39.02 23.50L38.88 23.36L38.98 23.46Q39.48 21.75 38.20 20.57L38.09 20.46L38.22 20.59Q36.81 19.27 35.02 19.43L35.06 19.46L35.16 19.56Q34.68 19.39 34.34 19.39L34.37 19.42L34.43 19.48Q32.80 19.37 31.54 20.28L31.70 20.44L31.57 20.32Q30.25 21.66 30.48 24.32L30.52 24.37L30.62 24.47Q28.73 24.02 27.52 23.57L27.49 23.54L27.48 23.54Q27.29 22.13 27.22 20.68L27.27 20.73L27.29 20.76Q27.16 19.06 27.77 17.92L27.81 17.96L27.89 18.04Q29.66 16.65 33.01 16.65L32.99 16.63L34.62 16.51L34.72 16.61Q37.00 16.64 37.95 16.75L37.87 16.68L38.03 16.84Q42.19 17.07 42.45 19.51L42.56 19.61L42.54 19.59Q42.68 20.23 42.61 21.03L42.45 20.88L42.57 21.00Q42.57 21.68 42.41 22.36L42.27 22.21L42.40 22.35Q40.69 30.38 33.11 37.24L33.17 37.29L33.09 37.21Q34.58 37.14 35.95 37.14L35.90 37.10L35.96 37.15Q39.17 37.13 42.03 37.93ZM41.39 17.04L41.44 17.09L41.41 17.05Q39.85 16.45 38.13 16.37L38.22 16.46L34.66 16.13L34.79 16.26Q30.32 15.98 28.11 17.08L28.10 17.07L28.06 17.04Q26.96 18.37 26.96 20.42L26.91 20.37L26.87 20.33Q26.95 21.10 27.26 23.92L27.38 24.04L27.31 23.97Q27.93 24.28 29.11 24.59L28.98 24.46L29.08 25.58L28.93 25.43Q29.08 26.08 29.15 26.61L28.99 26.45L29.01 26.47Q30.37 26.69 32.85 26.92L32.72 26.79L32.84 26.91Q32.85 26.58 32.85 26.24L32.82 26.20L32.67 26.06Q32.85 24.41 34.07 23.06L33.95 22.94L33.90 22.89Q35.25 21.67 37.03 21.78L36.93 21.67L37.03 21.77Q37.68 21.70 38.44 21.86L38.45 21.86L38.42 21.83Q38.57 22.25 38.65 22.67L38.78 22.80L38.60 22.62Q38.71 23.11 38.63 23.45L38.61 23.43L38.67 23.49Q37.46 28.30 33.04 33.13L32.99 33.07L32.96 33.04Q30.90 35.37 25.46 41.42L25.48 41.45L25.47 41.44Q25.30 42.29 24.96 42.86L24.79 42.69L24.85 42.76Q26.43 41.86 27.96 41.33L27.93 41.30L27.97 41.34Q27.22 41.88 26.26 43.37L26.40 43.51L26.40 43.50Q26.14 43.70 26.03 44.05L26.07 44.08L26.12 44.13Q30.92 42.01 36.40 42.20L36.49 42.29L36.52 42.32Q42.04 42.32 46.61 44.68L46.71 44.78L45.78 42.71L45.80 42.72Q45.12 41.36 44.85 40.56L44.87 40.58L44.69 40.40Q44.08 40.09 42.86 39.67L42.94 39.75L42.87 39.69Q42.79 39.03 42.41 37.66L42.28 37.54L42.40 37.65Q40.16 37.05 37.88 36.86L37.86 36.84L37.87 36.86Q42.56 32.29 44.08 24.03L44.07 24.02L44.28 21.14L44.27 21.13Q44.07 19.22 42.85 18.54L42.94 18.63L42.88 18.60L42.90 18.62Q42.87 18.56 42.80 18.56L42.70 18.46L42.70 18.46Q42.58 17.74 41.48 17.13Z"/>
    <path fill="#c9e76e"
          d="M116.07 37.97L115.99 37.89L116.05 37.95Q116.35 38.94 116.88 40.95L116.90 40.97L116.92 40.99Q112.65 39.62 108.05 39.88L108.01 39.85L108.04 39.88Q103.42 40.09 99.42 42.07L99.38 42.03L99.36 42.01Q99.68 41.42 99.72 41.49L99.74 41.51L99.78 41.55Q103.46 37.54 107.38 33.12L107.35 33.10L107.46 33.20Q111.72 28.06 112.90 23.38L112.98 23.46L112.91 23.39Q113.36 21.63 112.08 20.45L112.22 20.58L112.20 20.56Q110.93 19.39 109.14 19.55L109.17 19.57L109.09 19.49Q108.74 19.45 108.40 19.45L108.38 19.43L108.36 19.41Q106.93 19.50 105.67 20.41L105.57 20.31L105.67 20.41Q104.32 21.72 104.55 24.39L104.57 24.42L104.57 24.41Q102.76 24.05 101.54 23.59L101.62 23.67L101.46 23.51Q101.33 22.17 101.26 20.72L101.18 20.64L101.33 20.79Q101.16 19.06 101.76 17.92L101.72 17.88L101.78 17.94Q103.68 16.67 107.03 16.67L106.98 16.62L108.76 16.65L108.76 16.65Q111.06 16.71 112.02 16.82L111.87 16.68L111.92 16.72Q116.35 17.24 116.62 19.68L116.57 19.62L116.64 19.69Q116.57 20.12 116.49 20.91L116.61 21.03L116.59 21.01Q116.41 21.52 116.26 22.21L116.33 22.28L116.30 22.25Q114.69 30.39 107.12 37.24L107.08 37.21L107.17 37.29Q108.61 37.17 109.98 37.17L109.91 37.10L109.86 37.05Q113.21 37.16 116.06 37.96ZM115.51 17.16L115.53 17.18L115.39 17.04Q113.86 16.46 112.14 16.38L112.17 16.41L108.69 16.16L108.67 16.14Q104.15 15.81 101.94 16.91L101.96 16.93L102.04 17.02Q101.01 18.42 101.01 20.48L100.88 20.35L100.93 20.39Q100.91 21.06 101.21 23.88L101.27 23.93L101.37 24.03Q101.79 24.15 102.97 24.45L103.10 24.58L103.09 25.60L102.94 25.45Q102.90 25.90 102.97 26.43L103.00 26.46L103.05 26.51Q104.36 26.68 106.83 26.91L106.79 26.86L106.75 26.82Q106.84 26.57 106.84 26.23L106.74 26.12L106.81 26.19Q106.77 24.33 107.98 22.97L108.05 23.04L107.95 22.94Q109.22 21.64 111.01 21.76L111.00 21.74L110.95 21.69Q111.73 21.75 112.49 21.91L112.59 22.01L112.60 22.01Q112.70 22.38 112.77 22.80L112.75 22.77L112.69 22.72Q112.66 23.06 112.58 23.41L112.67 23.49L112.68 23.50Q111.30 28.14 106.89 32.97L106.99 33.08L106.90 32.98Q104.89 35.35 99.45 41.41L99.43 41.39L99.47 41.43Q99.25 42.24 98.91 42.81L98.97 42.88L98.80 42.71Q100.53 41.96 102.06 41.43L102.00 41.38L101.98 41.36Q101.29 41.95 100.33 43.44L100.39 43.49L100.32 43.43Q100.29 43.86 100.18 44.20L100.01 44.03L100.13 44.15Q104.89 41.98 110.37 42.17L110.42 42.22L110.53 42.33Q116.12 42.40 120.69 44.76L120.76 44.83L119.71 42.64L119.78 42.71Q119.12 41.36 118.86 40.56L118.73 40.44L118.75 40.45Q118.02 40.04 116.81 39.62L116.82 39.64L116.83 39.65Q116.74 38.98 116.36 37.61L116.24 37.49L116.39 37.64Q114.10 36.98 111.81 36.79L111.73 36.72L111.76 36.74Q116.46 32.20 117.99 23.93L118.00 23.95L118.21 21.08L118.15 21.01Q118.10 19.25 116.88 18.57L116.97 18.65L116.78 18.51L116.89 18.62Q116.79 18.48 116.72 18.48L116.72 18.48L116.85 18.61Q116.49 17.65 115.39 17.04Z"/>
</svg>