<svg xmlns="http://www.w3.org/2000/svg" width="150" height="50" viewBox="0,0,150,50">
    <path fill="#b4d74b"
          d="M104.88 40.42L104.87 40.42L104.73 40.28Q103.39 40.42 101.83 40.00L101.86 40.03L101.83 40.01Q100.66 39.14 100.51 37.51L100.39 37.39L100.44 37.44Q100.49 37.33 100.68 34.70L100.69 34.71L100.65 34.67Q101.68 34.49 103.70 34.11L103.67 34.08L103.41 34.77L103.42 34.78Q103.28 36.65 104.69 37.23L104.62 37.16L104.65 37.19Q105.44 37.52 107.54 37.52L107.47 37.46L107.52 37.51Q109.04 37.28 109.23 37.20L109.33 37.30L109.32 37.29Q110.25 37.16 110.98 36.66L110.98 36.67L110.91 36.60Q112.26 35.58 112.07 33.49L112.09 33.51L112.06 33.49Q112.00 31.18 110.27 29.62L110.18 29.53L110.18 29.53Q108.47 27.99 106.00 27.99L105.95 27.94L106.01 27.78L106.08 27.85Q106.40 27.75 107.28 27.67L107.28 27.68L107.23 27.62Q109.12 27.49 110.49 26.26L110.54 26.31L110.47 26.24Q111.98 25.14 112.13 23.28L112.02 23.16L112.08 23.23Q112.16 22.88 112.16 22.54L112.23 22.62L112.21 22.60Q112.05 20.91 110.68 20.00L110.77 20.09L110.83 20.15Q109.63 19.36 108.03 19.48L107.88 19.33L108.05 19.50Q106.65 19.24 105.43 19.66L105.51 19.74L105.41 19.64Q103.90 20.11 103.60 21.25L103.62 21.27L103.72 21.37Q103.52 22.13 103.60 22.89L103.53 22.82L103.67 22.96Q102.47 22.56 100.42 21.84L100.51 21.93L100.51 21.94Q100.21 20.19 100.25 19.35L100.30 19.40L100.37 19.47Q100.37 17.83 101.43 17.15L101.46 17.18L101.52 17.24Q102.92 16.61 104.52 16.61L104.55 16.65L104.57 16.67Q107.66 16.56 110.82 16.83L110.76 16.77L110.88 16.88Q115.85 17.21 115.54 20.98L115.61 21.04L115.63 21.06Q115.46 22.46 114.97 24.02L115.07 24.12L114.91 23.96Q114.05 27.09 111.69 28.01L111.78 28.10L111.78 28.10Q114.41 28.64 115.02 31.99L114.96 31.93L115.04 32.01Q115.22 33.10 115.29 35.12L115.32 35.14L115.36 35.19Q115.50 39.63 110.90 40.09L110.74 39.93L110.83 40.01Q110.18 40.17 104.88 40.43ZM110.05 42.63L109.98 42.56L110.09 42.67Q110.61 42.62 113.47 42.70L113.54 42.76L113.54 42.77Q115.14 42.70 116.78 42.05L116.85 42.12L116.94 42.21Q118.07 41.21 117.88 39.46L117.84 39.42L117.90 39.47Q117.64 38.00 117.34 36.25L117.40 36.31L117.35 36.26Q116.81 31.95 114.86 30.31L114.84 30.29L114.49 29.75L114.62 29.84L114.45 29.67Q116.27 28.29 117.03 23.91L117.09 23.97L117.06 23.95Q117.01 23.39 117.12 22.44L117.11 22.43L117.11 22.43Q117.23 21.71 117.15 21.03L117.18 21.05L117.14 21.01Q117.01 19.36 115.72 18.68L115.71 18.67L115.67 18.71L115.76 18.79Q115.34 17.69 114.20 17.16L114.23 17.19L114.20 17.16Q112.72 16.52 107.58 16.21L107.62 16.25L107.65 16.28Q105.87 16.10 104.27 16.10L104.35 16.18L104.28 16.11Q102.74 16.17 101.22 16.82L101.21 16.80L101.20 16.80Q99.90 17.48 99.90 19.23L99.99 19.32L99.97 19.30Q99.97 18.88 100.24 22.23L100.13 22.13L100.21 22.21Q100.53 22.30 102.17 22.91L102.24 22.97L102.15 22.89Q102.07 23.34 102.03 23.84L102.08 23.88L102.11 23.91Q102.08 24.38 102.12 24.92L102.08 24.87L102.14 24.93Q103.93 25.32 105.95 25.43L105.88 25.36L106.07 25.55Q105.90 23.44 107.00 22.60L107.07 22.67L106.99 22.59Q107.86 21.98 109.88 21.75L109.91 21.77L109.89 21.76Q110.99 21.72 111.56 21.91L111.55 21.89L111.54 21.89Q111.59 22.01 111.63 22.12L111.59 22.09L111.66 22.35L111.81 22.95L111.67 22.81Q111.78 23.12 111.74 23.27L111.71 23.24L111.80 23.33Q111.72 25.03 110.19 26.21L110.08 26.09L110.21 26.23Q109.16 27.00 107.14 27.19L107.18 27.24L107.21 27.27Q106.41 27.34 105.53 27.34L105.63 27.44L105.63 27.43Q105.66 27.76 105.81 28.45L105.70 28.34L105.81 28.45Q107.54 28.43 108.99 29.16L109.05 29.22L108.90 29.18L107.28 29.31L107.27 29.30Q107.26 29.60 107.38 30.21L107.41 30.24L107.51 30.35Q109.66 30.28 111.37 31.61L111.31 31.55L111.38 31.63Q111.62 32.02 111.93 33.66L111.87 33.60L111.77 33.50Q112.12 36.59 109.19 37.01L109.04 36.86L109.12 36.94Q107.06 37.24 106.49 37.20L106.36 37.07L106.46 37.17Q106.01 37.06 105.47 36.99L105.35 36.86L105.38 36.43L105.46 35.94L105.64 35.71L105.56 35.29L105.71 35.44Q104.63 35.38 103.83 35.57L103.92 35.66L103.84 35.58Q103.93 35.48 103.93 35.29L103.93 35.29L103.84 35.20Q103.90 35.03 103.90 34.80L103.83 34.73L103.89 34.79Q103.94 34.39 104.09 33.66L104.07 33.64L104.17 33.74Q102.29 33.96 100.43 34.30L100.30 34.17L100.32 34.19Q100.39 34.76 100.28 35.88L100.21 35.82L100.19 35.79Q100.01 36.86 100.01 37.47L100.18 37.64L100.12 37.57Q100.27 39.70 101.64 40.47L101.54 40.36L101.55 40.37Q103.00 42.62 107.72 42.43L107.83 42.54L107.80 42.51Q108.47 42.42 109.99 42.57Z"/>
    <path fill="#eb9a7f"
          d="M30.77 40.32L30.82 40.36L30.88 40.43Q29.38 40.41 27.82 39.99L27.82 40.00L27.86 40.03Q26.64 39.12 26.49 37.48L26.52 37.51L26.39 37.38Q26.49 37.33 26.68 34.70L26.67 34.69L26.56 34.59Q27.62 34.42 29.63 34.04L29.65 34.06L29.38 34.74L29.38 34.74Q29.13 36.51 30.54 37.08L30.68 37.22L30.53 37.07Q31.49 37.58 33.59 37.58L33.53 37.52L33.52 37.51Q35.03 37.27 35.23 37.20L35.29 37.26L35.38 37.35Q36.29 37.20 37.02 36.70L36.95 36.64L36.86 36.54Q38.37 35.69 38.18 33.60L38.15 33.57L38.19 33.62Q38.03 31.21 36.30 29.65L36.13 29.48L36.26 29.61Q34.52 28.04 32.05 28.04L32.05 28.04L31.92 27.69L31.97 27.74Q32.40 27.75 33.28 27.67L33.19 27.58L33.37 27.76Q35.19 27.56 36.56 26.33L36.61 26.38L36.49 26.26Q37.87 25.03 38.02 23.17L38.07 23.22L38.01 23.15Q38.10 22.82 38.10 22.48L38.07 22.45L38.20 22.58Q38.18 21.04 36.81 20.13L36.79 20.11L36.68 19.99Q35.53 19.27 33.93 19.38L33.91 19.36L33.96 19.41Q32.62 19.21 31.40 19.63L31.35 19.58L31.51 19.74Q30.02 20.23 29.72 21.37L29.73 21.39L29.69 21.35Q29.59 22.20 29.67 22.96L29.56 22.85L29.61 22.90Q28.58 22.67 26.52 21.95L26.40 21.82L26.42 21.84Q26.26 20.23 26.29 19.40L26.31 19.41L26.23 19.33Q26.33 17.80 27.40 17.11L27.56 17.27L27.57 17.28Q28.81 16.50 30.41 16.50L30.56 16.66L30.55 16.65Q33.69 16.59 36.85 16.86L36.91 16.91L36.73 16.73Q41.83 17.19 41.53 20.96L41.63 21.06L41.47 20.91Q41.57 22.57 41.08 24.13L41.08 24.13L40.99 24.04Q40.15 27.20 37.79 28.12L37.74 28.06L37.82 28.14Q40.43 28.66 41.04 32.01L40.94 31.91L40.92 31.89Q41.09 32.98 41.17 34.99L41.23 35.05L41.32 35.14Q41.45 39.58 36.85 40.04L36.81 40.00L36.78 39.97Q36.09 40.08 30.80 40.35ZM36.07 42.65L36.07 42.65L35.99 42.57Q36.60 42.61 39.46 42.69L39.54 42.77L39.41 42.64Q41.25 42.80 42.89 42.16L42.84 42.11L42.91 42.18Q44.12 41.25 43.93 39.50L43.80 39.38L43.79 39.36Q43.69 38.05 43.38 36.30L43.49 36.40L43.41 36.33Q42.64 31.79 40.70 30.15L40.76 30.21L40.56 29.82L40.44 29.66L40.58 29.79Q42.29 28.31 43.05 23.93L43.11 23.99L43.06 23.94Q43.09 23.48 43.21 22.53L43.23 22.55L43.15 22.47Q43.20 21.68 43.12 21.00L43.11 20.99L43.17 21.04Q43.00 19.35 41.70 18.66L41.82 18.78L41.64 18.68L41.71 18.75Q41.39 17.74 40.25 17.21L40.30 17.26L40.21 17.17Q38.78 16.58 33.64 16.27L33.60 16.23L33.53 16.16Q31.92 16.15 30.32 16.15L30.37 16.20L30.30 16.13Q28.68 16.11 27.16 16.75L27.27 16.87L27.09 16.69Q25.88 17.46 25.88 19.21L25.99 19.32L26.02 19.35Q25.90 18.81 26.16 22.16L26.17 22.17L26.15 22.14Q26.47 22.23 28.10 22.84L28.24 22.98L28.08 22.82Q28.14 23.41 28.10 23.91L28.17 23.97L28.07 23.88Q28.16 24.46 28.20 24.99L28.23 25.02L28.26 25.06Q29.89 25.27 31.91 25.39L32.01 25.49L31.95 25.43Q31.89 23.43 32.99 22.59L32.94 22.54L32.96 22.56Q33.86 21.98 35.88 21.75L35.85 21.72L35.77 21.64Q36.95 21.67 37.52 21.86L37.54 21.89L37.57 21.91Q37.71 22.13 37.74 22.24L37.59 22.09L37.69 22.38L37.83 22.97L37.73 22.87Q37.72 23.05 37.68 23.20L37.74 23.27L37.70 23.22Q37.69 25.00 36.17 26.18L36.12 26.14L36.04 26.06Q35.23 27.08 33.22 27.27L33.24 27.29L33.23 27.28Q32.48 27.41 31.61 27.41L31.60 27.41L31.64 27.44Q31.56 27.67 31.71 28.35L31.75 28.39L31.75 28.39Q33.55 28.44 35.00 29.16L34.89 29.05L34.95 29.23L33.38 29.41L33.30 29.33Q33.33 29.66 33.44 30.27L33.42 30.26L33.49 30.33Q35.64 30.27 37.36 31.60L37.36 31.60L37.25 31.49Q37.49 31.89 37.80 33.53L37.84 33.57L37.89 33.62Q37.93 36.40 35.00 36.82L35.12 36.94L35.09 36.91Q32.93 37.11 32.36 37.08L32.42 37.14L32.38 37.09Q32.05 37.10 31.51 37.02L31.42 36.93L31.53 36.58L31.47 35.95L31.55 35.61L31.53 35.26L31.65 35.37Q30.67 35.42 29.87 35.61L29.89 35.63L29.82 35.56Q29.88 35.43 29.88 35.24L29.93 35.29L29.91 35.27Q29.85 34.98 29.85 34.75L29.81 34.72L29.85 34.75Q29.93 34.37 30.08 33.65L30.11 33.68L30.06 33.63Q28.16 33.83 26.30 34.17L26.38 34.25L26.25 34.13Q26.34 34.71 26.23 35.83L26.24 35.84L26.21 35.82Q26.14 36.98 26.14 37.59L26.10 37.55L26.07 37.53Q26.15 39.58 27.52 40.35L27.52 40.35L27.53 40.35Q29.04 42.66 33.76 42.47L33.71 42.42L33.67 42.38Q34.49 42.44 36.02 42.59Z"/>
</svg>