<svg xmlns="http://www.w3.org/2000/svg" width="150" height="50" viewBox="0,0,150,50">
    <path fill="#e5388e"
          d="M30.16 32.95L30.20 32.99L30.08 32.87Q33.16 32.49 36.36 32.60L36.46 32.70L36.46 32.70Q36.42 30.15 36.42 27.75L36.37 27.70L36.36 27.69Q36.39 25.25 36.58 22.70L36.50 22.62L36.54 22.66Q35.37 24.42 30.15 32.94ZM40.00 40.24L40.14 40.38L40.11 40.35Q38.39 40.00 36.60 39.92L36.62 39.95L36.66 39.99Q36.34 37.50 36.23 35.02L36.23 35.02L36.36 35.15Q31.00 34.93 26.28 36.34L26.16 36.22L26.23 36.29Q26.28 35.74 26.47 34.75L26.61 34.88L26.56 34.83Q28.28 31.61 31.86 25.32L31.95 25.41L31.88 25.34Q34.82 20.52 38.25 16.64L38.31 16.69L38.16 16.55Q39.16 16.48 40.84 16.22L40.80 16.18L40.71 16.09Q38.97 22.69 38.97 29.73L38.85 29.61L38.95 29.71Q38.81 31.05 38.88 32.54L38.89 32.55L40.25 32.72L40.17 32.64Q40.78 32.68 41.39 32.80L41.48 32.89L41.53 32.94Q41.61 33.90 41.88 35.84L41.82 35.78L41.77 35.73Q40.60 35.51 39.11 35.32L39.09 35.29L39.06 35.26Q39.32 37.31 40.00 40.24ZM41.69 32.45L41.66 32.42L41.72 32.48Q41.57 32.44 41.38 32.44L41.33 32.39L40.94 32.39L40.99 32.44Q40.83 30.91 40.83 29.50L40.81 29.48L40.95 29.61Q40.90 23.17 42.95 17.15L42.99 17.19L42.94 17.14Q42.19 17.41 40.74 17.80L40.80 17.85L40.66 17.72Q41.00 17.06 41.45 15.65L41.33 15.53L41.47 15.67Q40.15 16.02 38.09 16.25L38.01 16.17L38.08 16.24Q34.07 20.49 28.86 29.86L29.01 30.01L31.07 26.33L30.96 26.22Q30.51 27.21 30.24 27.78L30.31 27.85L25.93 36.94L25.93 36.94Q26.51 36.72 27.65 36.34L27.61 36.30L27.44 36.51L27.58 36.65Q27.33 37.20 27.03 38.46L27.14 38.57L27.04 38.47Q31.28 37.27 36.12 37.46L35.98 37.32L36.12 37.46Q36.03 38.29 36.22 40.27L36.17 40.21L36.28 40.33Q37.38 40.36 38.44 40.47L38.30 40.33L38.32 40.35Q38.55 41.11 38.81 42.48L38.76 42.43L38.73 42.40Q40.67 42.66 43.67 43.57L43.76 43.66L43.65 43.55Q42.66 41.41 41.75 38.14L41.74 38.14L43.19 38.59L43.33 38.74Q43.92 38.86 44.60 39.21L44.56 39.16L44.58 39.19Q43.86 36.76 43.71 35.08L43.62 34.99L43.66 35.03Q43.20 34.99 42.06 34.76L41.93 34.63L42.05 34.75Q41.67 33.31 41.67 32.43ZM33.71 32.31L33.65 32.26L33.76 32.36Q34.60 31.15 36.16 28.60L36.03 28.46L36.16 28.60Q36.09 29.47 36.05 30.42L36.05 30.43L36.04 30.42Q35.99 31.35 36.03 32.31L36.13 32.41L36.11 32.39Q35.47 32.28 34.90 32.28L34.97 32.35L34.89 32.28Q34.26 32.25 33.65 32.25Z"/>
    <path fill="#e48ab7"
          d="M104.16 32.95L104.12 32.91L104.24 33.03Q107.34 32.66 110.54 32.78L110.35 32.59L110.45 32.69Q110.42 30.15 110.42 27.75L110.47 27.81L110.35 27.68Q110.49 25.35 110.68 22.80L110.66 22.77L110.69 22.81Q109.35 24.40 104.13 32.92ZM114.00 40.24L113.99 40.23L114.06 40.30Q112.39 40.00 110.60 39.93L110.68 40.01L110.59 39.91Q110.38 37.53 110.27 35.06L110.26 35.05L110.22 35.02Q105.01 34.94 100.29 36.35L100.29 36.35L100.20 36.26Q100.28 35.74 100.47 34.75L100.47 34.74L100.46 34.73Q102.30 31.62 105.88 25.34L105.87 25.33L105.84 25.31Q108.73 20.43 112.16 16.55L112.18 16.57L112.32 16.71Q113.16 16.48 114.83 16.21L114.84 16.22L114.86 16.24Q112.96 22.68 112.96 29.72L112.78 29.54L112.92 29.68Q112.98 31.22 113.05 32.71L112.97 32.63L114.19 32.66L114.26 32.73Q114.83 32.73 115.44 32.84L115.54 32.95L115.48 32.89Q115.49 33.77 115.76 35.71L115.77 35.73L115.93 35.88Q114.58 35.49 113.10 35.30L113.06 35.27L113.14 35.35Q113.33 37.33 114.02 40.26ZM115.80 32.56L115.69 32.45L115.84 32.60Q115.47 32.35 115.28 32.35L115.39 32.46L114.89 32.33L114.96 32.41Q114.78 30.86 114.78 29.45L114.85 29.52L114.93 29.59Q114.90 23.17 116.96 17.16L116.96 17.16L116.92 17.12Q116.16 17.39 114.72 17.77L114.68 17.73L114.67 17.73Q114.95 17.02 115.41 15.61L115.31 15.51L115.39 15.59Q114.13 16.01 112.08 16.24L112.03 16.19L112.00 16.16Q108.09 20.51 102.87 29.87L102.94 29.94L104.91 26.16L105.01 26.26Q104.51 27.21 104.25 27.78L104.35 27.89L99.90 36.91L99.94 36.96Q100.45 36.66 101.59 36.28L101.72 36.41L101.49 36.56L101.47 36.55Q101.43 37.30 101.12 38.55L101.16 38.59L101.15 38.58Q105.15 37.13 109.98 37.32L110.11 37.45L110.10 37.45Q110.11 38.37 110.30 40.35L110.22 40.27L110.25 40.30Q111.27 40.25 112.33 40.36L112.36 40.39L112.32 40.35Q112.53 41.09 112.80 42.46L112.76 42.43L112.75 42.41Q114.72 42.71 117.73 43.63L117.81 43.70L117.63 43.53Q116.69 41.44 115.78 38.17L115.85 38.24L117.24 38.64L117.24 38.64Q118.03 38.98 118.72 39.32L118.67 39.28L118.66 39.27Q117.93 36.83 117.78 35.15L117.77 35.14L117.61 34.98Q117.03 34.82 115.89 34.59L116.00 34.70L115.90 34.60Q115.75 33.39 115.75 32.51ZM107.81 32.41L107.77 32.37L107.67 32.28Q108.41 30.96 109.97 28.41L110.09 28.53L110.06 28.49Q110.08 29.47 110.04 30.42L109.99 30.37L109.95 30.33Q110.06 31.43 110.10 32.38L110.13 32.41L110.14 32.42Q109.50 32.31 108.93 32.31L108.98 32.36L108.84 32.23Q108.27 32.26 107.66 32.26Z"/>
</svg>