<svg xmlns="http://www.w3.org/2000/svg" width="150" height="50" viewBox="0,0,150,50">
    <path fill="#f07f7f"
          d="M31.40 40.34L31.45 40.39L31.51 40.44Q27.46 40.70 26.47 38.38L26.44 38.34L26.36 38.27Q27.13 37.33 28.70 35.54L28.69 35.53L28.73 35.58Q29.26 37.62 32.26 37.74L32.13 37.60L32.21 37.68Q35.52 37.68 37.16 36.35L37.19 36.38L37.32 36.51Q38.63 34.81 38.55 32.11L38.49 32.05L38.58 32.14Q38.40 27.04 33.60 27.27L33.54 27.21L33.65 27.33Q30.83 27.47 29.08 28.73L29.00 28.65L28.70 28.50L28.47 28.35L28.46 28.34Q28.82 25.19 28.70 22.45L28.67 22.42L28.74 22.49Q28.64 19.88 28.30 16.57L28.34 16.60L28.21 16.48Q31.86 17.42 35.67 17.31L35.68 17.32L35.76 17.40Q39.49 17.25 43.07 15.99L43.19 16.11L42.54 17.56L42.63 17.65Q42.27 18.35 42.08 19.19L42.02 19.14L42.14 19.26Q39.00 20.27 35.12 20.27L35.01 20.16L35.00 20.14Q33.58 20.17 32.09 20.02L32.07 19.99L32.19 20.12Q32.05 20.73 31.70 25.19L31.78 25.26L31.80 25.28Q32.61 24.80 34.67 24.65L34.61 24.59L34.55 24.53Q38.32 24.80 39.77 26.48L39.74 26.44L39.87 26.58Q41.06 27.92 41.33 31.76L41.36 31.80L41.46 31.89Q41.74 36.10 40.52 38.12L40.46 38.05L40.44 38.03Q38.45 39.97 35.14 40.19L35.09 40.15L35.21 40.26Q34.07 40.20 31.41 40.35ZM37.58 42.75L37.42 42.59L37.45 42.62Q40.88 42.70 42.78 41.60L42.85 41.66L42.91 41.73Q43.81 40.11 43.81 38.01L43.84 38.05L43.87 38.07Q43.90 35.02 42.95 30.91L42.83 30.79L42.90 30.86Q42.53 29.12 41.31 27.71L41.30 27.70L41.24 27.68L41.03 27.40L40.78 27.30L40.69 27.21Q40.41 26.51 39.76 25.82L39.75 25.81L39.84 25.94L39.73 25.82Q38.17 24.12 34.48 24.12L34.55 24.19L34.36 24.27L34.26 24.17Q34.33 23.59 34.52 22.48L34.64 22.60L34.62 22.59Q39.64 22.73 43.67 21.09L43.57 20.99L43.54 20.96Q44.05 19.64 45.00 16.82L45.03 16.85L42.81 17.68L42.81 17.67Q43.16 16.50 43.65 15.36L43.75 15.46L43.65 15.35Q39.82 16.82 35.71 16.89L35.70 16.89L35.80 16.98Q31.62 17.03 27.66 15.93L27.75 16.01L27.77 16.04Q28.47 20.47 28.47 24.89L28.31 24.73L28.49 24.90Q28.44 26.75 28.32 28.66L28.32 28.65L28.29 28.62Q28.47 28.73 29.04 29.03L29.07 29.07L29.13 29.12Q29.40 28.82 30.05 28.48L30.07 28.50L30.17 28.60Q30.06 29.29 29.83 30.81L29.86 30.85L29.89 30.87Q30.30 31.05 30.72 31.28L30.72 31.28L30.71 31.28Q33.48 29.51 35.35 29.51L35.37 29.54L35.40 29.57Q36.74 29.57 37.92 30.22L37.83 30.13L37.78 30.08Q38.18 31.16 38.21 32.12L38.15 32.05L38.24 32.14Q38.23 34.64 37.20 35.75L37.18 35.72L37.22 35.77Q35.99 37.13 33.75 37.36L33.56 37.16L33.72 37.33Q32.71 37.34 32.02 37.27L32.11 37.35L31.95 37.20Q31.27 37.24 30.51 36.89L30.42 36.80L30.45 36.64L30.22 36.64L30.26 36.68Q29.52 36.25 28.98 34.91L28.97 34.90L28.97 34.90Q27.65 36.32 25.98 38.45L25.95 38.43L26.00 38.47Q26.29 39.11 27.12 40.06L27.14 40.07L27.09 40.03Q28.21 41.91 31.03 42.40L30.97 42.35L30.90 42.28Q32.04 42.46 37.41 42.57Z"/>
    <path fill="#e74fe7"
          d="M105.53 40.47L105.45 40.39L105.36 40.30Q101.36 40.60 100.37 38.28L100.40 38.31L100.34 38.25Q101.17 37.36 102.73 35.57L102.62 35.46L102.69 35.53Q103.23 37.60 106.24 37.71L106.17 37.65L106.24 37.72Q109.61 37.77 111.25 36.44L111.13 36.32L111.26 36.45Q112.61 34.80 112.53 32.09L112.55 32.11L112.55 32.11Q112.36 27.00 107.56 27.23L107.58 27.25L107.58 27.25Q104.78 27.42 103.03 28.68L103.11 28.76L102.66 28.46L102.60 28.48L102.52 28.40Q102.89 25.26 102.77 22.52L102.71 22.46L102.73 22.48Q102.57 19.81 102.23 16.50L102.33 16.60L102.19 16.45Q106.04 17.60 109.84 17.49L109.70 17.34L109.67 17.31Q113.64 17.39 117.21 16.14L117.11 16.03L116.50 17.52L116.63 17.64Q116.23 18.31 116.04 19.15L116.14 19.25L116.10 19.21Q112.97 20.23 109.08 20.23L109.05 20.19L109.00 20.14Q107.59 20.18 106.11 20.03L106.10 20.03L106.20 20.13Q106.04 20.73 105.70 25.18L105.65 25.13L105.66 25.14Q106.62 24.81 108.68 24.66L108.52 24.50L108.62 24.60Q112.34 24.82 113.79 26.50L113.78 26.48L113.76 26.46Q115.05 27.91 115.32 31.76L115.36 31.79L115.36 31.79Q115.60 35.96 114.38 37.98L114.38 37.97L114.48 38.07Q112.46 39.98 109.15 40.21L109.23 40.29L109.16 40.21Q108.12 40.25 105.46 40.40ZM111.57 42.74L111.44 42.61L111.51 42.68Q114.89 42.71 116.80 41.61L116.75 41.57L116.91 41.72Q117.84 40.14 117.84 38.05L117.84 38.04L117.86 38.07Q117.77 34.89 116.81 30.78L116.86 30.82L116.81 30.77Q116.55 29.14 115.33 27.73L115.19 27.59L115.24 27.68L115.14 27.50L114.68 27.19L114.78 27.29Q114.44 26.54 113.79 25.85L113.73 25.79L113.70 25.80L113.83 25.92Q112.30 24.24 108.61 24.24L108.49 24.12L108.24 24.15L108.36 24.26Q108.33 23.58 108.52 22.48L108.65 22.61L108.55 22.51Q113.57 22.66 117.60 21.02L117.67 21.09L117.61 21.03Q117.91 19.50 118.86 16.68L118.95 16.77L116.77 17.63L116.89 17.76Q117.33 16.67 117.83 15.53L117.76 15.47L117.79 15.50Q113.83 16.82 109.71 16.90L109.73 16.92L109.86 17.05Q105.58 16.99 101.62 15.89L101.77 16.04L101.77 16.04Q102.36 20.36 102.36 24.77L102.48 24.89L102.30 24.72Q102.46 26.78 102.35 28.68L102.21 28.54L102.25 28.58Q102.50 28.76 103.07 29.07L103.08 29.07L103.08 29.07Q103.41 28.83 104.06 28.49L104.20 28.63L104.08 28.51Q104.13 29.36 103.90 30.88L103.83 30.81L103.80 30.79Q104.19 30.95 104.61 31.18L104.76 31.32L104.71 31.28Q107.37 29.40 109.24 29.40L109.27 29.43L109.32 29.49Q110.69 29.52 111.87 30.17L111.84 30.14L111.85 30.15Q112.23 31.21 112.26 32.17L112.15 32.05L112.26 32.16Q112.24 34.66 111.22 35.76L111.36 35.91L111.20 35.75Q109.99 37.13 107.75 37.35L107.56 37.16L107.68 37.29Q106.69 37.33 106.01 37.25L106.05 37.29L106.08 37.33Q105.14 37.10 104.37 36.76L104.51 36.90L104.43 36.63L104.18 36.60L104.18 36.61Q103.51 36.24 102.98 34.91L102.96 34.90L102.95 34.88Q101.66 36.33 99.98 38.46L99.90 38.38L99.97 38.44Q100.17 38.99 101.00 39.94L101.02 39.96L101.01 39.94Q102.03 41.73 104.85 42.22L104.85 42.23L104.99 42.36Q106.20 42.62 111.56 42.73Z"/>
</svg>