<svg xmlns="http://www.w3.org/2000/svg" width="150" height="50" viewBox="0,0,150,50">
    <path fill="#ef859f"
          d="M33.92 29.02L33.95 29.05L33.97 29.07Q32.13 28.94 30.89 30.37L30.94 30.42L30.92 30.40Q29.63 31.77 29.44 33.67L29.53 33.77L29.48 33.72Q29.29 35.81 30.37 36.78L30.45 36.85L30.38 36.79Q31.39 37.68 33.48 37.56L33.48 37.56L33.53 37.61Q35.69 37.53 36.80 36.85L36.74 36.79L36.80 36.85Q37.87 35.67 37.87 34.11L37.95 34.19L37.97 34.21Q37.84 33.70 37.76 33.32L37.90 33.46L37.91 33.47Q37.92 31.73 36.82 30.38L36.82 30.38L36.76 30.32Q35.64 28.95 33.96 29.06ZM33.58 40.22L33.62 40.25L33.60 40.23Q29.30 40.32 27.90 39.56L27.72 39.38L27.87 39.53Q26.77 38.70 26.58 36.98L26.62 37.03L26.58 36.98Q26.59 36.35 26.63 35.62L26.68 35.68L26.56 35.56Q26.79 34.68 26.79 34.22L26.75 34.18L26.71 34.14Q27.23 31.35 27.38 30.67L27.27 30.55L27.24 30.53Q27.83 28.71 28.66 27.30L28.70 27.34L28.65 27.29Q31.24 22.84 37.18 16.48L37.17 16.47L37.15 16.45Q39.92 16.25 42.13 15.45L42.02 15.35L42.09 15.42Q35.19 22.83 32.00 27.06L32.09 27.15L31.96 27.02Q33.10 26.68 34.39 26.68L34.39 26.67L34.37 26.66Q37.58 26.55 39.10 28.49L39.08 28.47L39.19 28.58Q40.42 30.12 40.77 33.66L40.86 33.75L40.79 33.68Q40.93 34.47 40.93 35.07L40.86 35.01L40.86 35.01Q40.98 38.25 38.77 39.31L38.72 39.27L38.64 39.18Q37.55 39.92 33.66 40.30ZM35.96 42.71L35.89 42.64L35.96 42.71Q37.24 42.66 39.22 42.73L39.07 42.58L39.09 42.61Q40.84 42.79 42.40 42.07L42.31 41.97L42.32 41.99Q43.41 41.18 43.41 39.39L43.54 39.52L43.44 39.41Q43.37 38.85 43.20 37.86L43.22 37.88L43.22 37.88Q43.17 37.01 43.17 36.55L43.07 36.46L43.15 36.54Q42.17 31.71 40.57 29.81L40.69 29.93L40.70 29.94Q40.52 29.72 40.36 29.49L40.40 29.53L40.04 29.24L40.06 29.29L40.02 29.26Q39.72 28.81 39.12 27.86L39.05 27.79L39.10 27.84Q38.16 26.86 36.18 26.41L36.26 26.49L36.11 26.34Q37.47 24.88 40.44 21.19L40.38 21.13L44.64 15.87L44.68 15.91Q43.02 16.69 40.63 17.45L40.57 17.40L40.56 17.39Q41.56 16.48 43.35 14.50L43.42 14.58L43.42 14.57Q40.93 15.55 37.05 16.12L37.10 16.17L36.97 16.04Q31.32 22.00 28.35 26.95L28.35 26.96L28.32 26.92Q26.88 29.51 26.30 35.76L26.27 35.73L26.25 35.70Q26.25 36.35 26.33 37.30L26.37 37.34L26.27 37.25Q26.35 39.00 27.46 39.92L27.40 39.86L27.51 39.97Q27.94 40.17 27.90 40.21L27.80 40.11L27.78 40.08Q28.12 40.96 28.92 41.38L28.92 41.38L29.02 41.48Q30.41 42.11 32.35 42.30L32.46 42.41L32.42 42.37Q32.43 42.38 35.93 42.68ZM35.64 31.39L35.63 31.38L35.67 31.42Q36.25 31.31 37.20 31.81L37.14 31.75L37.12 31.73Q37.49 32.70 37.49 33.35L37.46 33.32L37.47 33.33Q37.65 35.19 36.70 36.18L36.71 36.19L36.77 36.25Q35.68 36.95 33.59 37.25L33.50 37.17L33.69 37.36Q32.24 37.35 31.71 37.09L31.65 37.03L31.56 36.94Q31.41 36.53 31.41 36.22L31.47 36.28L31.42 36.23Q31.13 32.89 34.06 31.60L34.07 31.61L34.05 31.59Q34.80 31.23 35.56 31.31Z"/>
    <path fill="#c14ee8"
          d="M107.96 29.06L107.95 29.05L108.04 29.14Q106.25 29.07 105.02 30.49L104.95 30.43L105.02 30.50Q103.65 31.79 103.46 33.70L103.50 33.73L103.55 33.79Q103.37 35.89 104.46 36.86L104.29 36.69L104.31 36.72Q105.46 37.75 107.55 37.63L107.56 37.65L107.49 37.58Q109.60 37.44 110.70 36.75L110.81 36.86L110.74 36.79Q111.84 35.64 111.84 34.08L111.95 34.19L111.92 34.16Q111.89 33.75 111.82 33.37L111.74 33.29L111.80 33.36Q111.91 31.72 110.81 30.37L110.71 30.27L110.88 30.44Q109.64 28.95 107.96 29.06ZM107.62 40.25L107.60 40.23L107.65 40.29Q103.22 40.24 101.81 39.48L101.75 39.41L101.77 39.43Q100.70 38.63 100.51 36.92L100.69 37.09L100.60 37.00Q100.53 36.28 100.57 35.56L100.60 35.60L100.64 35.64Q100.72 34.61 100.72 34.15L100.61 34.04L100.76 34.19Q101.22 31.35 101.38 30.66L101.35 30.64L101.25 30.53Q101.79 28.68 102.63 27.27L102.62 27.26L102.55 27.19Q105.35 22.95 111.29 16.59L111.27 16.57L111.17 16.47Q113.82 16.16 116.03 15.36L116.17 15.50L116.05 15.37Q109.19 22.83 105.99 27.06L106.01 27.07L106.03 27.09Q107.10 26.68 108.39 26.68L108.30 26.59L108.39 26.67Q111.55 26.52 113.07 28.46L113.14 28.53L113.24 28.63Q114.45 30.15 114.79 33.69L114.90 33.79L114.81 33.71Q114.94 34.47 114.94 35.08L114.95 35.09L114.83 34.98Q114.99 38.26 112.78 39.32L112.79 39.33L112.77 39.32Q111.50 39.87 107.61 40.25ZM109.80 42.55L109.81 42.56L109.83 42.58Q111.22 42.64 113.20 42.71L113.16 42.67L113.22 42.73Q114.80 42.75 116.36 42.03L116.26 41.93L116.36 42.03Q117.50 41.26 117.50 39.47L117.44 39.42L117.36 39.33Q117.54 39.02 117.37 38.03L117.18 37.85L117.34 38.00Q117.17 37.01 117.17 36.56L117.11 36.50L117.02 36.41Q116.32 31.86 114.72 29.96L114.56 29.79L114.66 29.90Q114.59 29.79 114.44 29.56L114.39 29.51L114.09 29.29L113.96 29.20L114.04 29.28Q113.67 28.75 113.06 27.80L113.11 27.85L113.00 27.74Q112.18 26.88 110.20 26.43L110.08 26.31L110.28 26.50Q111.48 24.89 114.45 21.20L114.33 21.08L118.63 15.86L118.69 15.92Q117.10 16.76 114.70 17.52L114.54 17.37L114.58 17.41Q115.52 16.45 117.31 14.47L117.33 14.48L117.34 14.49Q114.88 15.50 111.00 16.07L110.97 16.04L111.03 16.10Q105.39 22.07 102.42 27.02L102.33 26.93L102.48 27.08Q100.79 29.43 100.22 35.67L100.23 35.69L100.30 35.75Q100.27 36.37 100.35 37.32L100.21 37.18L100.31 37.29Q100.44 39.09 101.55 40.01L101.38 39.84L101.49 39.95Q101.78 40.01 101.75 40.05L101.71 40.02L101.72 40.03Q102.12 40.96 102.92 41.38L102.95 41.40L102.96 41.42Q104.39 42.09 106.33 42.28L106.37 42.32L106.33 42.28Q106.41 42.35 109.91 42.66ZM109.64 31.39L109.65 31.39L109.62 31.37Q110.29 31.36 111.25 31.85L111.15 31.75L111.17 31.78Q111.43 32.64 111.43 33.29L111.43 33.29L111.57 33.43Q111.74 35.28 110.79 36.27L110.69 36.17L110.77 36.25Q109.66 36.93 107.57 37.23L107.52 37.18L107.56 37.23Q106.08 37.19 105.54 36.92L105.69 37.07L105.53 36.90Q105.47 36.58 105.47 36.28L105.39 36.19L105.49 36.30Q105.21 32.98 108.15 31.68L108.20 31.73L108.19 31.73Q108.95 31.38 109.71 31.46Z"/>
</svg>