<svg xmlns="http://www.w3.org/2000/svg" width="150" height="50" viewBox="0,0,150,50">
    <path fill="#aa78dd"
          d="M37.98 27.23L38.00 27.26L37.95 27.21Q38.72 27.18 40.13 27.03L40.13 27.02L40.09 26.98Q40.04 27.62 40.04 28.27L40.11 28.34L40.13 29.62L40.04 29.52Q39.17 29.49 38.33 29.57L38.44 29.67L38.45 29.68Q37.60 29.71 36.76 29.67L36.75 29.66L36.71 29.62Q33.91 35.84 30.48 40.44L30.47 40.43L30.47 40.44Q28.00 41.12 26.70 41.73L26.60 41.63L26.62 41.65Q30.67 35.88 33.71 29.59L33.89 29.77L31.11 29.61L31.23 29.73Q31.10 28.27 30.99 26.94L31.08 27.04L31.12 27.08Q33.02 27.23 35.08 27.23L35.07 27.22L37.01 23.57L36.85 23.41Q37.92 21.58 39.13 19.98L39.07 19.91L39.11 19.95Q37.51 20.06 35.91 20.06L35.99 20.14L35.89 20.05Q29.88 20.12 26.11 17.92L26.14 17.95L25.54 16.28L25.51 16.25Q25.22 15.46 24.84 14.59L24.70 14.45L24.65 14.40Q29.06 17.10 34.77 17.33L34.80 17.35L34.79 17.35Q39.89 17.54 45.03 15.56L45.07 15.60L45.04 15.57Q44.84 15.98 44.35 16.85L44.32 16.82L44.43 16.94Q40.79 21.68 37.94 27.20ZM45.91 18.18L46.05 18.33L46.91 16.18L46.95 16.22Q46.02 16.73 44.34 17.46L44.37 17.48L44.49 17.11L44.44 17.06Q44.66 17.01 44.77 16.90L44.86 16.98L44.74 16.87Q45.24 16.30 45.96 14.96L45.91 14.91L45.83 14.84Q40.47 17.09 34.72 16.86L34.72 16.86L34.81 16.95Q28.79 16.68 24.03 13.71L24.03 13.71L23.95 13.63Q25.12 15.63 25.96 18.30L25.95 18.29L25.94 18.28Q26.93 18.81 27.73 19.11L27.78 19.17L27.70 19.09Q27.96 19.54 28.42 21.41L28.46 21.45L28.40 21.38Q31.62 22.70 37.14 22.55L37.00 22.42L37.11 22.52Q36.74 23.02 34.76 26.79L34.84 26.88L34.87 26.90Q32.74 26.83 30.76 26.64L30.79 26.67L30.78 26.66Q30.93 27.57 30.93 28.44L30.79 28.30L30.92 30.15L32.48 30.03L32.47 31.43L32.57 31.54Q28.51 38.78 25.73 42.36L25.90 42.52L25.74 42.37Q27.45 41.71 29.08 41.22L29.07 41.21L29.14 41.28Q28.44 42.17 27.07 43.88L27.05 43.87L26.91 43.73Q30.10 42.65 32.53 42.42L32.50 42.39L32.57 42.46Q35.50 38.69 38.62 31.91L38.73 32.02L42.15 32.20L42.05 32.10Q41.97 31.19 41.97 30.27L41.92 30.22L41.93 28.44L41.95 28.46Q41.63 28.41 41.08 28.45L41.13 28.50L41.22 28.59Q40.55 28.51 40.28 28.51L40.29 28.51L40.28 28.51Q40.31 28.42 40.35 28.27L40.45 28.37L40.33 27.98L40.38 28.04Q42.84 22.84 45.92 18.20Z"/>
    <path fill="#e462c3"
          d="M111.92 27.18L111.95 27.20L111.96 27.21Q112.71 27.17 114.12 27.01L114.09 26.99L114.03 26.92Q114.14 27.72 114.14 28.37L114.13 28.36L114.13 29.62L113.99 29.48Q113.16 29.48 112.32 29.55L112.36 29.60L112.43 29.66Q111.52 29.63 110.68 29.59L110.82 29.73L110.68 29.59Q107.91 35.84 104.48 40.45L104.42 40.38L104.55 40.52Q101.92 41.05 100.63 41.66L100.62 41.65L100.70 41.73Q104.71 35.92 107.76 29.64L107.74 29.62L105.25 29.75L105.15 29.66Q105.22 28.40 105.11 27.07L105.02 26.98L105.06 27.01Q106.90 27.10 108.95 27.10L109.00 27.15L110.95 23.50L111.01 23.56Q111.92 21.58 113.14 19.98L113.04 19.88L113.23 20.07Q111.57 20.12 109.97 20.12L110.01 20.16L109.94 20.09Q103.93 20.17 100.16 17.97L100.19 18.00L99.50 16.25L99.43 16.17Q99.22 15.47 98.84 14.59L98.65 14.40L98.83 14.58Q103.03 17.06 108.74 17.29L108.81 17.37L108.72 17.28Q114.02 17.67 119.16 15.69L119.02 15.55L118.98 15.51Q118.93 16.06 118.43 16.94L118.43 16.94L118.48 16.99Q114.69 21.57 111.84 27.09ZM119.91 18.19L119.96 18.24L121.04 16.31L120.92 16.19Q120.12 16.84 118.44 17.56L118.28 17.40L118.62 17.24L118.60 17.22Q118.60 16.96 118.72 16.84L118.76 16.89L118.70 16.83Q119.17 16.23 119.89 14.90L119.92 14.93L119.78 14.79Q114.59 17.20 108.84 16.98L108.88 17.02L108.79 16.93Q102.70 16.58 97.94 13.62L98.08 13.76L98.10 13.77Q99.02 15.54 99.86 18.20L99.80 18.14L99.92 18.26Q101.04 18.92 101.84 19.23L101.69 19.08L101.80 19.19Q102.04 19.62 102.50 21.48L102.41 21.40L102.46 21.45Q105.54 22.62 111.06 22.47L111.18 22.59L111.00 22.41Q110.76 23.05 108.78 26.82L108.80 26.83L108.75 26.79Q106.78 26.87 104.80 26.68L104.73 26.61L104.77 26.65Q104.85 27.49 104.85 28.37L104.74 28.25L104.81 30.04L106.46 30.02L106.44 31.40L106.49 31.46Q102.52 38.79 99.74 42.37L99.88 42.51L99.79 42.42Q101.35 41.62 102.99 41.13L102.97 41.10L103.13 41.27Q102.27 42.00 100.89 43.71L101.07 43.89L101.03 43.85Q104.23 42.78 106.66 42.55L106.66 42.55L106.65 42.54Q109.56 38.75 112.69 31.98L112.62 31.91L115.97 32.03L116.08 32.14Q115.95 31.17 115.95 30.26L116.00 30.30L116.03 28.54L116.01 28.53Q115.72 28.50 115.17 28.54L115.21 28.58L115.11 28.48Q114.65 28.62 114.39 28.62L114.44 28.67L114.41 28.64Q114.36 28.47 114.40 28.32L114.32 28.25L114.38 28.04L114.40 28.06Q116.90 22.90 119.98 18.26Z"/>
</svg>