<svg xmlns="http://www.w3.org/2000/svg" width="150" height="50" viewBox="0,0,150,50">
    <path fill="#9143df"
          d="M34.11 29.21L34.17 29.27L34.02 29.12Q32.27 29.23 31.05 30.57L31.06 30.57L31.06 30.58Q29.82 31.88 29.66 33.79L29.54 33.66L29.63 33.75Q29.53 35.97 30.75 36.98L30.63 36.86L30.66 36.90Q31.89 37.92 34.03 37.84L34.05 37.87L34.07 37.89Q36.34 37.68 37.29 36.73L37.29 36.73L37.21 36.65Q38.26 35.22 38.14 33.40L38.13 33.38L38.10 33.35Q37.99 31.49 36.90 30.29L36.94 30.32L36.96 30.34Q35.93 29.20 34.10 29.20ZM33.97 19.67L34.05 19.75L34.09 19.79Q32.63 19.62 31.30 20.12L31.36 20.18L31.32 20.14Q30.06 20.97 30.29 22.84L30.27 22.81L30.20 22.74Q30.72 26.50 34.07 26.50L34.02 26.45L34.12 26.55Q35.70 26.77 36.69 25.62L36.68 25.62L36.56 25.49Q37.73 24.53 37.76 22.97L37.76 22.96L37.69 22.90Q37.70 21.08 36.98 20.47L36.97 20.46L37.09 20.58Q35.27 19.60 33.98 19.67ZM33.83 40.35L33.74 40.26L30.67 40.24L30.83 40.40Q29.13 40.22 27.80 39.34L27.92 39.47L27.81 39.36Q26.60 38.38 26.75 35.52L26.67 35.44L26.74 35.51Q27.11 28.57 30.73 27.58L30.77 27.62L30.70 27.55Q28.54 26.76 27.21 21.40L27.06 21.24L27.05 21.23Q26.70 19.82 26.77 19.02L26.85 19.09L26.89 19.13Q27.07 16.88 30.76 16.84L30.80 16.87L30.83 16.90Q35.01 16.78 36.45 16.97L36.48 17.00L36.51 17.03Q40.30 17.51 40.76 19.53L40.77 19.54L40.92 19.69Q40.99 20.25 40.99 20.63L40.94 20.59L40.87 20.51Q40.91 21.24 40.72 21.85L40.85 21.98L40.69 21.81Q40.10 26.06 37.17 27.59L37.19 27.60L37.21 27.63Q40.76 28.48 41.26 33.77L41.11 33.62L41.14 33.65Q41.11 33.77 41.14 35.06L41.34 35.26L41.15 35.07Q41.26 37.85 39.66 38.91L39.67 38.92L39.66 38.91Q38.36 39.85 33.79 40.31ZM36.06 42.62L36.16 42.72L39.36 42.64L39.32 42.60Q41.05 42.70 42.57 41.98L42.62 42.02L42.70 42.10Q43.88 41.42 43.96 39.55L43.86 39.46L43.93 39.52Q43.97 38.42 43.59 36.48L43.53 36.42L43.55 36.44Q42.69 31.85 40.59 29.98L40.44 29.83L40.25 29.45L40.04 29.17L39.98 28.99L40.01 29.02Q41.54 27.54 42.45 23.39L42.57 23.51L42.45 23.38Q42.53 23.09 42.61 22.25L42.62 22.26L42.71 22.35Q42.63 21.51 42.56 20.91L42.64 20.99L42.61 20.96Q42.54 19.59 41.36 19.10L41.30 19.04L41.39 19.09L41.20 18.98L41.18 18.96Q40.78 18.10 39.60 17.30L39.67 17.38L39.76 17.42L39.81 17.47Q37.73 16.69 33.66 16.50L33.72 16.56L33.61 16.45Q32.08 16.37 30.71 16.49L30.80 16.57L30.82 16.59Q29.89 16.50 28.59 16.65L28.65 16.71L28.69 16.74Q26.73 17.11 26.50 18.75L26.51 18.75L26.53 18.77Q26.42 19.20 26.46 20.00L26.44 19.97L26.54 20.07Q26.63 20.59 27.20 22.95L27.17 22.92L27.23 22.98Q28.03 26.21 29.78 27.55L29.68 27.44L29.77 27.54L29.76 27.53Q27.08 28.91 26.54 34.09L26.50 34.05L26.41 33.95Q26.28 36.23 26.28 37.14L26.25 37.11L26.32 37.18Q26.40 38.97 27.58 39.89L27.59 39.90L27.63 39.94Q27.69 39.96 27.95 40.15L27.82 40.02L27.87 40.06Q29.00 42.45 36.12 42.68ZM35.65 31.47L35.80 31.62L35.80 31.62Q36.70 31.53 37.57 31.99L37.57 31.98L37.43 31.84Q37.95 32.97 37.91 33.51L37.80 33.39L37.78 33.37Q37.80 33.66 37.80 33.97L37.99 34.16L37.96 34.13Q37.87 36.39 35.58 37.23L35.62 37.27L35.61 37.25Q34.73 37.48 33.93 37.36L33.95 37.38L33.92 37.36Q32.96 37.61 31.82 37.16L31.67 37.01L31.67 37.01Q31.45 36.40 31.52 35.42L31.52 35.41L31.57 35.46Q31.74 33.89 32.94 32.67L33.02 32.74L32.83 32.56Q34.13 31.44 35.73 31.56ZM36.01 22.13L35.98 22.09L35.99 22.10Q36.85 22.05 37.38 22.21L37.27 22.09L37.33 22.95L37.21 22.83Q37.22 24.25 36.31 25.26L36.35 25.30L36.38 25.33Q35.39 26.26 34.02 26.07L34.09 26.14L34.12 26.17Q33.10 26.14 32.68 25.91L32.62 25.85L32.69 25.92Q32.74 25.74 32.62 25.06L32.54 24.97L32.53 24.97Q32.31 23.61 33.53 22.77L33.44 22.68L33.42 22.65Q34.58 22.07 35.99 22.11Z"/>
    <path fill="#5ddfdf"
          d="M108.08 29.18L108.10 29.20L108.19 29.29Q106.27 29.24 105.05 30.57L105.04 30.55L105.04 30.55Q103.88 31.94 103.72 33.85L103.71 33.83L103.65 33.77Q103.38 35.83 104.60 36.84L104.75 36.98L104.64 36.87Q105.86 37.88 107.99 37.80L108.09 37.91L108.09 37.91Q110.25 37.60 111.20 36.64L111.38 36.82L111.23 36.67Q112.37 35.33 112.25 33.51L112.16 33.41L112.14 33.39Q112.18 31.68 111.09 30.48L110.95 30.33L111.03 30.42Q109.85 29.12 108.02 29.12ZM108.03 19.73L108.06 19.75L108.04 19.74Q106.54 19.53 105.21 20.03L105.31 20.13L105.36 20.18Q103.98 20.89 104.21 22.76L104.15 22.70L104.33 22.88Q104.77 26.56 108.12 26.56L108.18 26.62L108.03 26.47Q109.65 26.72 110.64 25.58L110.54 25.47L110.66 25.59Q111.65 24.45 111.68 22.89L111.70 22.90L111.65 22.86Q111.83 21.20 111.10 20.59L110.96 20.45L110.93 20.42Q109.36 19.68 108.06 19.76ZM107.84 40.36L107.82 40.34L104.76 40.33L104.69 40.25Q103.19 40.28 101.86 39.40L101.97 39.51L101.87 39.41Q100.50 38.27 100.65 35.42L100.73 35.50L100.75 35.51Q101.03 28.49 104.65 27.50L104.68 27.53L104.75 27.60Q102.46 26.68 101.13 21.32L101.12 21.31L101.14 21.33Q100.73 19.86 100.81 19.06L100.93 19.17L100.87 19.12Q101.09 16.90 104.78 16.86L104.79 16.87L104.80 16.87Q109.02 16.79 110.46 16.98L110.62 17.14L110.55 17.07Q114.31 17.52 114.77 19.54L114.84 19.61L114.82 19.59Q115.04 20.30 115.04 20.68L114.88 20.53L115.01 20.65Q114.91 21.24 114.72 21.85L114.84 21.97L114.66 21.79Q114.09 26.05 111.16 27.58L111.18 27.59L111.12 27.53Q114.73 28.44 115.23 33.74L115.13 33.64L115.13 33.64Q115.13 33.79 115.17 35.09L115.29 35.21L115.27 35.19Q115.31 37.89 113.71 38.96L113.74 38.99L113.70 38.95Q112.35 39.84 107.78 40.30ZM110.02 42.58L110.16 42.71L113.51 42.80L113.46 42.74Q115.15 42.80 116.67 42.07L116.67 42.07L116.72 42.13Q117.84 41.37 117.91 39.51L117.89 39.49L117.87 39.46Q117.92 38.38 117.54 36.43L117.44 36.33L117.47 36.36Q116.58 31.74 114.48 29.87L114.59 29.98L114.34 29.54L114.05 29.17L114.06 29.07L113.96 28.97Q115.58 27.59 116.50 23.44L116.44 23.38L116.53 23.47Q116.62 23.18 116.70 22.34L116.54 22.18L116.56 22.21Q116.66 21.55 116.59 20.94L116.54 20.89L116.63 20.98Q116.51 19.57 115.33 19.07L115.32 19.06L115.31 19.02L115.15 18.93L115.20 18.98Q114.78 18.10 113.60 17.30L113.74 17.44L113.78 17.44L113.74 17.40Q111.78 16.74 107.71 16.55L107.74 16.58L107.65 16.49Q106.06 16.35 104.69 16.47L104.66 16.43L104.77 16.54Q103.85 16.46 102.55 16.61L102.66 16.71L102.64 16.69Q100.77 17.15 100.55 18.79L100.38 18.62L100.54 18.78Q100.49 19.27 100.53 20.07L100.45 19.99L100.41 19.95Q100.59 20.55 101.16 22.91L101.07 22.82L101.09 22.83Q101.90 26.08 103.65 27.41L103.77 27.54L103.75 27.52L103.80 27.56Q100.98 28.82 100.44 33.99L100.57 34.12L100.40 33.94Q100.21 36.16 100.21 37.07L100.27 37.13L100.34 37.20Q100.42 38.99 101.60 39.91L101.48 39.79L101.47 39.78Q101.58 39.85 101.84 40.04L101.86 40.05L101.92 40.12Q102.91 42.36 110.03 42.58ZM109.72 31.54L109.69 31.52L109.73 31.55Q110.63 31.47 111.51 31.93L111.44 31.86L111.60 32.01Q111.85 32.87 111.81 33.40L111.89 33.49L111.80 33.40Q111.93 33.79 111.93 34.10L111.97 34.13L111.84 34.00Q111.80 36.32 109.51 37.16L109.67 37.32L109.68 37.33Q108.81 37.56 108.01 37.44L108.02 37.46L107.98 37.42Q106.86 37.51 105.71 37.06L105.68 37.02L105.86 37.20Q105.51 36.47 105.59 35.48L105.52 35.41L105.58 35.47Q105.73 33.88 106.93 32.66L107.00 32.72L106.99 32.72Q108.06 31.37 109.66 31.48ZM109.95 22.06L109.93 22.05L109.93 22.04Q110.71 21.91 111.24 22.06L111.20 22.02L111.28 22.90L111.36 22.98Q111.38 24.41 110.47 25.42L110.46 25.41L110.41 25.36Q109.47 26.34 108.10 26.15L108.17 26.23L108.03 26.08Q107.12 26.17 106.71 25.94L106.75 25.99L106.62 25.86Q106.63 25.64 106.52 24.95L106.55 24.99L106.60 25.03Q106.31 23.61 107.53 22.77L107.56 22.80L107.54 22.78Q108.59 22.07 109.99 22.11Z"/>
</svg>