<svg xmlns="http://www.w3.org/2000/svg" width="150" height="50" viewBox="0,0,150,50">
    <path fill="#8cec8c"
          d="M34.18 19.67L34.13 19.62L32.56 19.72L32.54 19.70Q30.42 19.95 30.20 21.96L30.12 21.89L30.15 21.92Q30.10 22.67 30.14 23.66L30.15 23.67L29.98 23.50Q30.12 25.55 31.38 26.88L31.41 26.91L31.42 26.92Q32.67 28.24 34.57 28.09L34.57 28.09L34.50 28.02Q36.48 27.79 37.24 26.88L37.36 26.99L37.32 26.96Q38.46 26.12 38.73 23.87L38.69 23.84L38.76 23.90Q39.01 21.65 37.76 20.81L37.62 20.67L37.77 20.82Q36.72 19.84 34.05 19.54ZM40.26 28.94L40.13 28.82L38.89 31.15L38.95 31.21Q36.28 36.04 32.51 40.12L32.33 39.94L32.46 40.07Q30.72 40.12 28.02 40.92L28.17 41.07L28.06 40.95Q33.42 34.70 36.57 29.90L36.60 29.93L36.64 29.97Q35.47 30.48 33.84 30.56L33.96 30.68L33.86 30.58Q30.88 30.76 29.36 28.78L29.40 28.82L29.45 28.87Q28.14 27.18 27.03 22.61L27.13 22.70L27.04 22.61Q27.09 22.21 26.94 21.28L26.84 21.18L26.84 21.18Q26.80 20.35 26.80 19.90L26.82 19.92L26.75 19.85Q26.71 18.02 27.77 17.41L27.75 17.39L27.78 17.42Q29.14 16.80 31.01 16.80L30.99 16.78L30.97 16.76Q34.08 16.67 34.08 16.67L34.15 16.74L34.09 16.69Q36.30 16.77 37.56 16.96L37.51 16.91L37.57 16.97Q39.70 17.23 40.61 17.72L40.55 17.66L40.52 17.63Q41.98 18.48 42.17 20.23L42.23 20.30L42.22 20.29Q42.16 20.45 41.97 23.12L41.94 23.09L41.96 23.11Q41.52 25.18 41.29 26.01L41.40 26.12L41.24 25.97Q40.93 27.44 40.17 28.85ZM42.09 31.27L42.17 31.35L42.06 31.24Q43.14 29.12 43.67 24.82L43.59 24.74L43.55 24.70Q43.93 22.60 43.89 21.72L43.85 21.69L43.86 21.69Q43.84 19.85 42.66 18.93L42.71 18.99L42.36 18.83L42.38 18.84Q42.12 18.09 41.21 17.45L41.18 17.42L41.08 17.31Q38.92 16.45 34.12 16.30L34.09 16.27L34.12 16.29Q33.06 16.19 30.62 16.19L30.66 16.23L30.66 16.23Q28.87 16.18 27.38 16.87L27.35 16.84L27.48 16.97Q26.37 17.79 26.44 19.62L26.44 19.62L26.45 19.63Q26.59 20.49 26.78 22.51L26.85 22.58L26.80 22.53Q27.33 25.08 27.60 25.92L27.63 25.94L27.57 25.89Q28.17 27.79 29.13 29.08L29.16 29.11L29.23 29.18Q29.33 29.36 29.71 29.74L29.86 29.89L29.73 29.76Q30.13 30.35 30.78 31.26L30.81 31.30L30.77 31.25Q32.30 32.67 34.24 32.86L34.23 32.85L34.22 32.84Q32.32 35.51 30.76 37.42L30.65 37.31L27.06 41.71L27.13 41.78Q29.33 40.98 30.97 40.63L31.01 40.67L30.88 40.54Q30.18 41.48 28.62 43.19L28.53 43.10L28.53 43.10Q31.67 42.25 34.79 42.21L34.93 42.34L34.81 42.22Q37.14 39.64 41.48 32.41L41.40 32.33L41.43 32.44L41.58 32.59Q41.80 31.82 42.14 31.32ZM36.16 22.10L36.07 22.01L36.11 22.06Q36.70 21.92 37.16 22.04L37.24 22.12L37.06 21.94Q37.76 22.11 38.14 22.22L38.25 22.33L38.13 22.21Q38.33 22.67 38.40 23.09L38.32 23.01L38.40 23.09Q38.50 23.53 38.39 23.91L38.42 23.94L38.31 23.84Q38.22 25.50 37.04 26.60L37.16 26.72L37.19 26.76Q36.11 27.65 34.47 27.61L34.59 27.73L34.60 27.74Q34.19 27.75 32.67 27.45L32.62 27.39L32.64 27.41Q32.45 26.58 32.45 25.85L32.40 25.80L32.33 25.74Q32.24 25.46 32.24 25.23L32.34 25.32L32.25 25.24Q32.35 23.13 34.63 22.33L34.48 22.17L34.55 22.25Q35.21 21.99 36.04 21.99Z"/>
    <path fill="#76cce9"
          d="M108.10 19.58L108.10 19.58L106.59 19.75L106.55 19.72Q104.28 19.81 104.05 21.82L104.14 21.91L104.03 21.80Q103.94 22.51 103.98 23.50L104.12 23.64L104.03 23.55Q104.10 25.52 105.36 26.86L105.44 26.94L105.45 26.95Q106.67 28.25 108.58 28.10L108.46 27.98L108.50 28.02Q110.51 27.82 111.27 26.91L111.44 27.08L111.43 27.07Q112.50 26.16 112.77 23.91L112.75 23.89L112.63 23.77Q112.97 21.60 111.71 20.76L111.62 20.67L111.67 20.72Q110.89 20.01 108.22 19.71ZM114.23 28.92L114.14 28.82L112.83 31.09L112.91 31.17Q110.20 35.97 106.43 40.04L106.50 40.10L106.45 40.06Q104.87 40.26 102.16 41.06L102.14 41.03L102.04 40.94Q107.36 34.64 110.52 29.85L110.55 29.88L110.53 29.86Q109.46 30.46 107.82 30.54L107.92 30.63L107.86 30.58Q104.89 30.77 103.37 28.79L103.48 28.90L103.42 28.84Q102.10 27.14 101.00 22.57L101.13 22.71L101.14 22.72Q101.10 22.22 100.95 21.29L100.93 21.27L100.99 21.33Q100.85 20.40 100.85 19.95L100.76 19.86L100.78 19.88Q100.75 18.06 101.82 17.45L101.77 17.40L101.85 17.49Q102.98 16.63 104.84 16.63L104.98 16.78L104.94 16.73Q108.13 16.72 108.13 16.72L108.18 16.78L108.01 16.61Q110.22 16.69 111.48 16.88L111.60 16.99L111.59 16.99Q113.71 17.24 114.62 17.73L114.63 17.75L114.55 17.66Q116.02 18.53 116.21 20.28L116.19 20.25L116.19 20.25Q116.07 20.36 115.88 23.03L115.91 23.06L115.99 23.14Q115.60 25.26 115.37 26.10L115.41 26.13L115.35 26.08Q114.91 27.43 114.15 28.84ZM116.13 31.31L116.14 31.32L116.12 31.30Q117.05 29.03 117.58 24.73L117.62 24.77L117.57 24.72Q117.92 22.59 117.88 21.72L117.95 21.78L117.93 21.77Q117.76 19.77 116.58 18.85L116.54 18.81L116.34 18.81L116.25 18.71Q116.06 18.03 115.15 17.38L115.19 17.43L115.07 17.31Q112.78 16.31 107.98 16.15L108.02 16.19L108.12 16.30Q107.20 16.33 104.77 16.33L104.69 16.25L104.64 16.21Q102.85 16.17 101.37 16.85L101.43 16.92L101.52 17.01Q100.32 17.74 100.39 19.57L100.47 19.65L100.31 19.48Q100.63 20.53 100.82 22.55L100.77 22.50L100.83 22.56Q101.33 25.07 101.59 25.91L101.54 25.86L101.71 26.03Q102.20 27.81 103.15 29.10L103.17 29.12L103.23 29.19Q103.33 29.36 103.71 29.74L103.74 29.77L103.79 29.82Q104.16 30.38 104.81 31.30L104.77 31.25L104.73 31.22Q106.16 32.53 108.10 32.72L108.09 32.71L108.16 32.78Q106.28 35.47 104.72 37.38L104.67 37.33L101.15 41.80L101.13 41.78Q103.37 41.01 105.01 40.67L104.88 40.54L105.00 40.66Q104.10 41.40 102.54 43.11L102.67 43.24L102.53 43.10Q105.74 42.32 108.87 42.28L108.81 42.22L108.90 42.32Q111.16 39.67 115.50 32.43L115.58 32.51L115.50 32.50L115.45 32.45Q115.71 31.73 116.05 31.23ZM110.08 22.02L110.04 21.98L110.06 22.01Q110.60 21.82 111.06 21.94L111.08 21.96L111.07 21.95Q111.88 22.23 112.26 22.34L112.17 22.25L112.25 22.33Q112.33 22.68 112.41 23.10L112.31 23.00L112.43 23.12Q112.54 23.57 112.43 23.95L112.32 23.85L112.34 23.86Q112.31 25.59 111.13 26.69L111.11 26.67L111.05 26.61Q110.16 27.70 108.52 27.66L108.53 27.67L108.53 27.67Q108.16 27.71 106.63 27.41L106.62 27.40L106.51 27.29Q106.36 26.49 106.36 25.77L106.28 25.68L106.45 25.85Q106.27 25.48 106.27 25.25L106.20 25.19L106.29 25.27Q106.21 22.99 108.50 22.19L108.62 22.32L108.49 22.19Q109.35 22.13 110.18 22.13Z"/>
</svg>